<?xml version="1.0" encoding="UTF-8"?>
<svg id="Layer_1" data-name="Layer 1" xmlns="http://www.w3.org/2000/svg" viewBox="0 0 410.8 614.09">
  <defs>
    <style>
      .cls-1 {
        fill: none;
        stroke: #ff7f00;
        stroke-miterlimit: 10;
        stroke-width: 5px;
      }

      .cls-2 {
        fill: #ff6d00;
      }
    </style>
  </defs>
  <path class="cls-1" d="m148.79,487.79l20.92-.04q46.45-.1,46.35-46.54l-.12-59.29c-.01-7.05,5.6-12.83,12.65-13.02,42.17-1.12,42.16-8.73,42.04-65.09l-.09-40.53c-.01-7.06,5.61-12.83,12.66-13.02,29.76-.8,29.57-6.17,28.24-45.01l-.06-28.78q-.09-45.07-45.17-44.98l-28.78.06q-45.07.09-44.98,45.17l.13,61.4c.01,6.7-5.06,12.32-11.73,12.96-29.26,2.8-29.23,14.49-29.13,64.39l.09,40.62c.01,7.03-5.57,12.8-12.6,13.02-42.23,1.29-42.21,9.6-42.09,67.25h0q.11,51.57,51.67,51.46Z"/>
  <path class="cls-1" d="m245.21,611.58l20.92-.04q46.45-.1,46.35-46.54l-.12-59.29c-.01-7.05,5.6-12.83,12.65-13.02,42.17-1.12,42.16-8.73,42.04-65.09l-.09-40.53c-.01-7.06,5.61-12.83,12.66-13.02,29.76-.8,29.57-6.17,28.24-45.01l-.06-28.78q-.09-45.07-45.17-44.98l-28.78.06q-45.07.09-44.98,45.17l.13,61.4c.01,6.7-5.06,12.32-11.73,12.96-29.26,2.8-29.23,14.49-29.13,64.39l.09,40.62c.01,7.03-5.57,12.8-12.6,13.02-42.23,1.29-42.21,9.6-42.09,67.25h0q.11,51.57,51.67,51.46Z"/>
  <path class="cls-1" d="m54.19,358.83l20.92-.04q46.45-.1,46.35-46.54l-.12-59.29c-.01-7.05,5.6-12.83,12.65-13.02,42.17-1.12,42.16-8.73,42.04-65.09l-.09-40.53c-.01-7.06,5.61-12.83,12.66-13.02,29.76-.8,29.57-6.17,28.24-45.01l-.06-28.78q-.09-45.07-45.17-44.98l-28.78.06q-45.07.09-44.98,45.17l.13,61.4c.01,6.7-5.06,12.32-11.73,12.96-29.26,2.8-29.23,14.49-29.13,64.39l.09,40.62c.01,7.03-5.57,12.8-12.6,13.02-42.23,1.29-42.21,9.6-42.09,67.25h0q.11,51.57,51.67,51.46Z"/>
  <path class="cls-2" d="m54.5,317.97c-.63,1.13-1.59,2.05-2.88,2.76-1.29.71-2.88,1.06-4.77,1.06s-3.48-.33-4.91-1.01c-1.43-.67-2.58-1.59-3.43-2.76-.85-1.17-1.35-2.5-1.48-4h3.83c.08.79.35,1.56.81,2.31.46.75,1.12,1.37,1.97,1.85.85.49,1.89.73,3.1.73,1.58,0,2.79-.42,3.63-1.26s1.26-1.92,1.26-3.23c0-1.13-.3-2.05-.89-2.76-.59-.71-1.32-1.27-2.19-1.68s-2.05-.85-3.55-1.32c-1.76-.58-3.18-1.12-4.24-1.64s-1.97-1.28-2.72-2.31c-.75-1.03-1.12-2.38-1.12-4.06,0-1.45.35-2.72,1.05-3.83s1.7-1.96,3-2.56c1.3-.6,2.83-.91,4.6-.91,2.73,0,4.9.66,6.51,1.99,1.6,1.33,2.54,3.02,2.8,5.07h-3.87c-.21-1.1-.78-2.08-1.7-2.92-.92-.84-2.17-1.26-3.75-1.26-1.45,0-2.6.38-3.47,1.12-.87.75-1.3,1.81-1.3,3.18,0,1.08.28,1.95.85,2.62.57.67,1.27,1.2,2.11,1.58.84.38,2,.81,3.47,1.28,1.79.58,3.23,1.13,4.32,1.66,1.09.53,2.02,1.32,2.78,2.39s1.14,2.48,1.14,4.24c0,1.32-.32,2.54-.95,3.67Z"/>
  <path class="cls-2" d="m159.85,49.26c2.21,1.67,3.73,3.95,4.58,6.84h-3.79c-.71-1.84-1.85-3.31-3.43-4.4-1.58-1.09-3.51-1.64-5.8-1.64-1.81,0-3.44.44-4.87,1.32-1.43.88-2.56,2.14-3.39,3.79-.83,1.64-1.24,3.57-1.24,5.78s.41,4.09,1.24,5.72c.83,1.63,1.96,2.89,3.39,3.77,1.43.88,3.06,1.32,4.87,1.32,2.29,0,4.22-.55,5.8-1.64,1.58-1.09,2.72-2.56,3.43-4.4h3.79c-.84,2.89-2.37,5.17-4.58,6.84-2.21,1.67-5.01,2.5-8.4,2.5-2.6,0-4.9-.6-6.9-1.79-2-1.2-3.56-2.87-4.67-5.01-1.12-2.14-1.68-4.58-1.68-7.32s.56-5.22,1.68-7.38c1.12-2.16,2.68-3.83,4.67-5.03,2-1.2,4.3-1.79,6.9-1.79,3.39,0,6.19.84,8.4,2.5Z"/>
  <path class="cls-2" d="m266.67,166.35v27.81h-3.63v-12.86h-14.12v12.86h-3.59v-27.81h3.59v12.03h14.12v-12.03h3.63Z"/>
  <path class="cls-2" d="m157.1,440.71h-12.23l-2.33,6.43h-3.87l10.3-27.3h4.06l10.26,27.3h-3.87l-2.33-6.43Zm-1.03-2.8l-5.09-14.04-5.09,14.04h10.18Z"/>
  <path class="cls-2" d="m373.13,306.72v2.92h-7.85v24.89h-3.59v-24.89h-7.85v-2.92h19.29Z"/>
  <path class="cls-2" d="m265.32,551.27v2.92h-7.85v24.89h-3.59v-24.89h-7.85v-2.92h19.29Z"/>
</svg>