<?xml version="1.0" encoding="UTF-8"?>
<svg id="Layer_1" data-name="Layer 1" xmlns="http://www.w3.org/2000/svg" xmlns:xlink="http://www.w3.org/1999/xlink" viewBox="0 0 1136.21 655.65">
  <defs>
    <style>
      .cls-1 {
        fill: url(#linear-gradient-2);
      }

      .cls-2 {
        fill: url(#linear-gradient-3);
      }

      .cls-3 {
        fill: url(#linear-gradient);
      }

      .cls-4 {
        fill: url(#linear-gradient-4);
      }
    </style>
    <linearGradient id="linear-gradient" x1="0" y1="327.82" x2="637.4" y2="327.82" gradientUnits="userSpaceOnUse">
      <stop offset="0" stop-color="#b1b1b1"/>
      <stop offset="1" stop-color="#2b2b2b"/>
    </linearGradient>
    <linearGradient id="linear-gradient-2" x1="535.7" y1="327.63" x2="960.95" y2="327.63" xlink:href="#linear-gradient"/>
    <linearGradient id="linear-gradient-3" x1="-913.2" y1="327.63" x2="-487.95" y2="327.63" gradientTransform="translate(223) rotate(-180) scale(1 -1)" xlink:href="#linear-gradient"/>
    <linearGradient id="linear-gradient-4" x1="640.04" y1="518.55" x2="701.86" y2="518.55" xlink:href="#linear-gradient"/>
  </defs>
  <path class="cls-3" d="m514.68,501.29l-52.61-109.95c-.94-1.96-2.91-3.2-5.08-3.2h-222.36c-2.12,0-4.05,1.19-5.02,3.07l-56.09,109.82c-.09.18-.17.36-.24.54l-2.71,7.04c-.13.33-.28.63-.46.93-.88,1.45-3.85,7.22-8.89,17.3-8.52,17.03-12.78,34.48-12.78,52.32,0,29.76,15.88,51.2,47.63,64.32,2.1.87,3.48,2.92,3.48,5.2v1.33c0,3.22-2.69,5.79-5.91,5.63-7.09-.37-17.08-1.33-29.99-2.86-23.94-2.84-45.43-4.26-64.49-4.26-17.44,0-38.94,1.42-64.49,4.26-12.67,1.47-22.24,2.41-28.7,2.81-3.24.2-5.97-2.37-5.97-5.62v-1.69c0-2.06,1.12-3.97,2.93-4.94,43.46-23.25,83.04-69.58,118.74-139L322.34,113.88c.82-1.6.84-3.51.02-5.12-15.3-29.99-36.06-53.27-62.29-69.83-25.66-16.2-55.44-25.43-89.35-27.69-2.95-.2-5.25-2.65-5.25-5.61h0c0-3.11,2.52-5.63,5.63-5.63h15.66c19.06,0,45.22,1.22,78.48,3.65,31.46,2.2,53.03,3.4,64.69,3.62,2.13.04,4.04,1.28,4.96,3.2l301.94,630.19c1.76,3.68-.85,7.96-4.93,8.06-36.07.93-78.41,3.15-127.02,6.66-3.26.24-6.03-2.35-6.03-5.62v-.25c0-2.67,1.88-4.94,4.49-5.52,27.82-6.08,41.74-22.42,41.74-49.01,0-20.68-10.14-51.91-30.42-93.69Zm-250.52-158.78h165.55c4.14,0,6.87-4.32,5.08-8.06l-79.49-166.65c-2-4.2-7.95-4.3-10.09-.16l-86.07,166.65c-1.94,3.75.79,8.22,5,8.22Z"/>
  <path class="cls-1" d="m837.6,641.36L536.31,12.54c-1.97-4.12,1.03-8.89,5.6-8.89h45.51c2.56,0,4.85,1.56,5.78,3.94,7.99,20.43,18.83,45.68,32.54,75.75,15.81,33.6,24.87,53.91,27.21,60.92.12.35.26.68.43,1,1.87,3.45,3.57,7.44,5.1,11.95.08.23.17.46.27.67l142.81,295.95c48.77,100.73,100.65,162.67,155.63,185.85,2.29.97,3.77,3.22,3.77,5.7h0c0,3.64-3.13,6.5-6.75,6.19-49.12-4.25-86.14-6.48-111.05-6.69-2.37-.02-4.52-1.39-5.55-3.53Z"/>
  <path class="cls-2" d="m834.3,641.36L1135.59,12.54c1.97-4.12-1.03-8.89-5.6-8.89h-45.51c-2.56,0-4.85,1.56-5.78,3.94-7.99,20.43-18.83,45.68-32.54,75.75-15.81,33.6-24.87,53.91-27.21,60.92-.12.35-.26.68-.43,1-1.87,3.45-3.57,7.44-5.1,11.95-.08.23-.17.46-.27.67l-142.81,295.95c-48.77,100.73-100.65,162.67-155.63,185.85-2.29.97-3.77,3.22-3.77,5.7h0c0,3.64,3.13,6.5,6.75,6.19,49.12-4.25,86.14-6.48,111.05-6.69,2.37-.02,4.52-1.39,5.55-3.53Z"/>
  <path class="cls-4" d="m700.07,522.14l-12.66,26.43c-6.62,13.82-26.3,13.82-32.92,0l-12.66-26.43c-2.94-6.13-2.21-13.37,1.85-18.82s8.14-11.19,12.18-17.15c7.23-10.67,22.97-10.67,30.2,0,4.04,5.96,8.1,11.68,12.18,17.15s4.79,12.69,1.85,18.82Z"/>
</svg>