<?xml version="1.0" encoding="UTF-8"?>
<svg id="Layer_1" data-name="Layer 1" xmlns="http://www.w3.org/2000/svg" xmlns:xlink="http://www.w3.org/1999/xlink" viewBox="0 0 1155.18 1136.17">
  <defs>
    <style>
      .cls-1 {
        fill: #4e6ee5;
      }

      .cls-2 {
        fill: #0b26ad;
      }

      .cls-3 {
        fill: #1637b2;
      }

      .cls-4 {
        clip-path: url(#clippath);
      }
    </style>
    <clipPath id="clippath">
      <path class="cls-3" d="m562.97,770.83h-17.75c-207.63,0-279.63,0-279.63-207.63v-17.75c0-207.63,72-207.63,279.63-207.63h17.75c213.63,0,284.63,0,278.63,207.63v17.75c2,207.63-69,207.63-278.63,207.63Z"/>
    </clipPath>
  </defs>
  <g>
    <path class="cls-3" d="m562.97,770.83h-17.75c-207.63,0-279.63,0-279.63-207.63v-17.75c0-207.63,72-207.63,279.63-207.63h17.75c213.63,0,284.63,0,278.63,207.63v17.75c2,207.63-69,207.63-278.63,207.63Z"/>
    <g class="cls-4">
      <g>
        <g>
          <g>
            <line class="cls-3" x1="541.35" y1="1135.46" x2="1134.48" y2="542.34"/>
            <rect class="cls-2" x="418.51" y="837.9" width="838.8" height="2" transform="translate(-347.77 838.2) rotate(-45)"/>
          </g>
          <g>
            <line class="cls-3" x1="494.47" y1="1087.59" x2="1087.59" y2="494.47"/>
            <rect class="cls-2" x="371.63" y="790.03" width="838.8" height="2" transform="translate(-327.66 791.03) rotate(-45)"/>
          </g>
          <g>
            <line class="cls-3" x1="447.09" y1="1040.22" x2="1040.22" y2="447.09"/>
            <rect class="cls-2" x="324.25" y="742.65" width="838.8" height="2" transform="translate(-308.03 743.65) rotate(-45)"/>
          </g>
          <g>
            <line class="cls-3" x1="399.22" y1="993.33" x2="992.35" y2="400.21"/>
            <rect class="cls-2" x="276.38" y="695.77" width="838.8" height="2" transform="translate(-288.9 696.07) rotate(-45)"/>
          </g>
          <g>
            <line class="cls-3" x1="352.34" y1="945.46" x2="945.46" y2="352.34"/>
            <rect class="cls-2" x="229.5" y="647.9" width="838.8" height="2" transform="translate(-268.78 648.9) rotate(-45)"/>
          </g>
          <g>
            <line class="cls-3" x1="304.96" y1="898.09" x2="898.09" y2="304.96"/>
            <rect class="cls-2" x="182.12" y="600.53" width="838.8" height="2" transform="translate(-249.16 601.53) rotate(-45)"/>
          </g>
          <g>
            <line class="cls-3" x1="257.1" y1="851.2" x2="850.22" y2="258.08"/>
            <rect class="cls-2" x="134.26" y="553.64" width="838.8" height="2" transform="translate(-230.03 553.95) rotate(-45)"/>
          </g>
          <g>
            <line class="cls-3" x1="210.21" y1="803.34" x2="803.34" y2="210.21"/>
            <rect class="cls-2" x="87.37" y="505.77" width="838.8" height="2" transform="translate(-209.91 506.77) rotate(-45)"/>
          </g>
          <g>
            <line class="cls-3" x1="162.84" y1="755.96" x2="755.96" y2="162.84"/>
            <rect class="cls-2" x="40" y="458.4" width="838.8" height="2" transform="translate(-190.29 459.4) rotate(-45)"/>
          </g>
          <g>
            <line class="cls-3" x1="114.97" y1="709.08" x2="708.09" y2="115.95"/>
            <rect class="cls-2" x="-7.87" y="411.51" width="838.8" height="2" transform="translate(-171.16 411.82) rotate(-45)"/>
          </g>
          <g>
            <line class="cls-3" x1="68.08" y1="661.21" x2="661.21" y2="68.08"/>
            <rect class="cls-2" x="-54.76" y="363.65" width="838.8" height="2" transform="translate(-151.04 364.65) rotate(-45)"/>
          </g>
          <g>
            <line class="cls-3" x1="20.71" y1="613.83" x2="613.83" y2="20.71"/>
            <rect class="cls-2" x="-102.13" y="316.27" width="838.8" height="2" transform="translate(-131.42 317.27) rotate(-45)"/>
          </g>
          <g>
            <line class="cls-3" x1="613.83" y1="1135.46" x2="20.71" y2="542.34"/>
            <rect class="cls-2" x="316.27" y="419.5" width="2" height="838.8" transform="translate(-500.27 470.05) rotate(-45)"/>
          </g>
          <g>
            <line class="cls-3" x1="660.72" y1="1087.59" x2="67.59" y2="494.47"/>
            <rect class="cls-2" x="363.15" y="371.63" width="2" height="838.8" transform="translate(-452.69 489.18) rotate(-45)"/>
          </g>
          <g>
            <line class="cls-3" x1="708.09" y1="1040.22" x2="114.97" y2="447.09"/>
            <rect class="cls-2" x="410.53" y="324.25" width="2" height="838.8" transform="translate(-405.31 508.81) rotate(-45)"/>
          </g>
          <g>
            <line class="cls-3" x1="755.96" y1="993.33" x2="162.84" y2="400.21"/>
            <rect class="cls-2" x="458.4" y="277.37" width="2" height="838.8" transform="translate(-358.14 528.92) rotate(-45)"/>
          </g>
          <g>
            <line class="cls-3" x1="802.84" y1="945.46" x2="209.72" y2="352.34"/>
            <rect class="cls-2" x="505.28" y="229.5" width="2" height="838.8" transform="translate(-310.56 548.06) rotate(-45)"/>
          </g>
          <g>
            <line class="cls-3" x1="850.22" y1="898.09" x2="257.1" y2="304.96"/>
            <rect class="cls-2" x="552.66" y="182.12" width="2" height="838.8" transform="translate(-263.18 567.68) rotate(-45)"/>
          </g>
          <g>
            <line class="cls-3" x1="898.09" y1="851.2" x2="304.96" y2="258.08"/>
            <rect class="cls-2" x="600.53" y="135.24" width="2" height="838.8" transform="translate(-216.01 587.79) rotate(-45)"/>
          </g>
          <g>
            <line class="cls-3" x1="944.97" y1="803.34" x2="351.85" y2="210.21"/>
            <rect class="cls-2" x="647.41" y="87.37" width="2" height="838.8" transform="translate(-168.43 606.93) rotate(-45)"/>
          </g>
          <g>
            <line class="cls-3" x1="992.35" y1="755.96" x2="399.22" y2="162.84"/>
            <rect class="cls-2" x="694.79" y="40" width="2" height="838.8" transform="translate(-121.05 626.55) rotate(-45)"/>
          </g>
          <g>
            <line class="cls-3" x1="1040.22" y1="709.08" x2="447.09" y2="115.95"/>
            <rect class="cls-2" x="742.65" y="-6.89" width="2" height="838.8" transform="translate(-73.88 646.67) rotate(-45)"/>
          </g>
          <g>
            <line class="cls-3" x1="1087.1" y1="661.21" x2="493.98" y2="68.08"/>
            <rect class="cls-2" x="789.54" y="-54.76" width="2" height="838.8" transform="translate(-26.3 665.8) rotate(-45)"/>
          </g>
          <g>
            <line class="cls-3" x1="1134.48" y1="613.83" x2="541.35" y2="20.71"/>
            <rect class="cls-2" x="836.92" y="-102.13" width="2" height="838.8" transform="translate(21.08 685.42) rotate(-45)"/>
          </g>
        </g>
        <g>
          <g>
            <line class="cls-3" x1="157.84" y1="946.58" x2="996.65" y2="946.58"/>
            <rect class="cls-2" x="157.84" y="945.58" width="838.8" height="2"/>
          </g>
          <g>
            <line class="cls-3" x1="158.54" y1="879.58" x2="997.34" y2="879.58"/>
            <rect class="cls-2" x="158.54" y="878.58" width="838.8" height="2"/>
          </g>
          <g>
            <line class="cls-3" x1="158.54" y1="812.58" x2="997.34" y2="812.58"/>
            <rect class="cls-2" x="158.54" y="811.58" width="838.8" height="2"/>
          </g>
          <g>
            <line class="cls-3" x1="157.84" y1="745.58" x2="996.65" y2="745.58"/>
            <rect class="cls-2" x="157.84" y="744.58" width="838.8" height="2"/>
          </g>
          <g>
            <line class="cls-3" x1="158.54" y1="678.58" x2="997.34" y2="678.58"/>
            <rect class="cls-2" x="158.54" y="677.58" width="838.8" height="2"/>
          </g>
          <g>
            <line class="cls-3" x1="158.54" y1="611.58" x2="997.34" y2="611.58"/>
            <rect class="cls-2" x="158.54" y="610.58" width="838.8" height="2"/>
          </g>
          <g>
            <line class="cls-3" x1="157.84" y1="544.58" x2="996.65" y2="544.58"/>
            <rect class="cls-2" x="157.84" y="543.58" width="838.8" height="2"/>
          </g>
          <g>
            <line class="cls-3" x1="158.54" y1="477.58" x2="997.34" y2="477.58"/>
            <rect class="cls-2" x="158.54" y="476.58" width="838.8" height="2"/>
          </g>
          <g>
            <line class="cls-3" x1="158.54" y1="410.58" x2="997.34" y2="410.58"/>
            <rect class="cls-2" x="158.54" y="409.58" width="838.8" height="2"/>
          </g>
          <g>
            <line class="cls-3" x1="157.84" y1="343.58" x2="996.65" y2="343.58"/>
            <rect class="cls-2" x="157.84" y="342.58" width="838.8" height="2"/>
          </g>
          <g>
            <line class="cls-3" x1="158.54" y1="276.58" x2="997.34" y2="276.58"/>
            <rect class="cls-2" x="158.54" y="275.58" width="838.8" height="2"/>
          </g>
          <g>
            <line class="cls-3" x1="158.54" y1="209.58" x2="997.34" y2="209.58"/>
            <rect class="cls-2" x="158.54" y="208.58" width="838.8" height="2"/>
          </g>
          <g>
            <line class="cls-3" x1="209.09" y1="997.83" x2="209.09" y2="159.03"/>
            <rect class="cls-2" x="208.09" y="159.03" width="2" height="838.8"/>
          </g>
          <rect class="cls-2" x="275.09" y="158.33" width="2" height="838.8"/>
          <g>
            <line class="cls-3" x1="343.09" y1="997.14" x2="343.09" y2="158.33"/>
            <rect class="cls-2" x="342.09" y="158.33" width="2" height="838.8"/>
          </g>
          <rect class="cls-2" x="409.09" y="159.03" width="2" height="838.8"/>
          <rect class="cls-2" x="476.09" y="158.33" width="2" height="838.8"/>
          <rect class="cls-2" x="543.09" y="158.33" width="2" height="838.8"/>
          <rect class="cls-2" x="610.09" y="159.03" width="2" height="838.8"/>
          <rect class="cls-2" x="677.09" y="158.33" width="2" height="838.8"/>
          <rect class="cls-2" x="744.09" y="158.33" width="2" height="838.8"/>
          <rect class="cls-2" x="811.09" y="159.03" width="2" height="838.8"/>
          <rect class="cls-2" x="878.09" y="158.33" width="2" height="838.8"/>
          <rect class="cls-2" x="945.09" y="158.33" width="2" height="838.8"/>
        </g>
      </g>
      <g>
        <g>
          <g>
            <line class="cls-3" x1="561.35" y1="1135.46" x2="1154.48" y2="542.34"/>
            <rect class="cls-2" x="438.51" y="837.9" width="838.8" height="2" transform="translate(-341.91 852.35) rotate(-45)"/>
          </g>
          <g>
            <line class="cls-3" x1="514.47" y1="1087.59" x2="1107.59" y2="494.47"/>
            <rect class="cls-2" x="391.63" y="790.03" width="838.8" height="2" transform="translate(-321.8 805.17) rotate(-45)"/>
          </g>
          <g>
            <line class="cls-3" x1="467.09" y1="1040.22" x2="1060.22" y2="447.09"/>
            <rect class="cls-2" x="344.25" y="742.65" width="838.8" height="2" transform="translate(-302.17 757.8) rotate(-45)"/>
          </g>
          <g>
            <line class="cls-3" x1="419.22" y1="993.33" x2="1012.35" y2="400.21"/>
            <rect class="cls-2" x="296.38" y="695.77" width="838.8" height="2" transform="translate(-283.04 710.22) rotate(-45)"/>
          </g>
          <g>
            <line class="cls-3" x1="372.34" y1="945.46" x2="965.46" y2="352.34"/>
            <rect class="cls-2" x="249.5" y="647.9" width="838.8" height="2" transform="translate(-262.93 663.04) rotate(-45)"/>
          </g>
          <g>
            <line class="cls-3" x1="324.96" y1="898.09" x2="918.09" y2="304.96"/>
            <rect class="cls-2" x="202.12" y="600.53" width="838.8" height="2" transform="translate(-243.3 615.67) rotate(-45)"/>
          </g>
          <g>
            <line class="cls-3" x1="277.1" y1="851.2" x2="870.22" y2="258.08"/>
            <rect class="cls-2" x="154.26" y="553.64" width="838.8" height="2" transform="translate(-224.17 568.09) rotate(-45)"/>
          </g>
          <g>
            <line class="cls-3" x1="230.21" y1="803.34" x2="823.34" y2="210.21"/>
            <rect class="cls-2" x="107.37" y="505.77" width="838.8" height="2" transform="translate(-204.05 520.92) rotate(-45)"/>
          </g>
          <g>
            <line class="cls-3" x1="182.84" y1="755.96" x2="775.96" y2="162.84"/>
            <rect class="cls-2" x="60" y="458.4" width="838.8" height="2" transform="translate(-184.43 473.54) rotate(-45)"/>
          </g>
          <g>
            <line class="cls-3" x1="134.97" y1="709.08" x2="728.09" y2="115.95"/>
            <rect class="cls-2" x="12.13" y="411.51" width="838.8" height="2" transform="translate(-165.3 425.96) rotate(-45)"/>
          </g>
          <g>
            <line class="cls-3" x1="88.08" y1="661.21" x2="681.21" y2="68.08"/>
            <rect class="cls-2" x="-34.76" y="363.65" width="838.8" height="2" transform="translate(-145.18 378.79) rotate(-45)"/>
          </g>
          <g>
            <line class="cls-3" x1="40.71" y1="613.83" x2="633.83" y2="20.71"/>
            <rect class="cls-2" x="-82.13" y="316.27" width="838.8" height="2" transform="translate(-125.56 331.41) rotate(-45)"/>
          </g>
          <g>
            <line class="cls-3" x1="633.83" y1="1135.46" x2="40.71" y2="542.34"/>
            <rect class="cls-2" x="336.27" y="419.5" width="2" height="838.8" transform="translate(-494.41 484.19) rotate(-45)"/>
          </g>
          <g>
            <line class="cls-3" x1="680.72" y1="1087.59" x2="87.59" y2="494.47"/>
            <rect class="cls-2" x="383.15" y="371.63" width="2" height="838.8" transform="translate(-446.83 503.33) rotate(-45)"/>
          </g>
          <g>
            <line class="cls-3" x1="728.09" y1="1040.22" x2="134.97" y2="447.09"/>
            <rect class="cls-2" x="430.53" y="324.25" width="2" height="838.8" transform="translate(-399.45 522.95) rotate(-45)"/>
          </g>
          <g>
            <line class="cls-3" x1="775.96" y1="993.33" x2="182.84" y2="400.21"/>
            <rect class="cls-2" x="478.4" y="277.37" width="2" height="838.8" transform="translate(-352.28 543.06) rotate(-45)"/>
          </g>
          <g>
            <line class="cls-3" x1="822.84" y1="945.46" x2="229.72" y2="352.34"/>
            <rect class="cls-2" x="525.28" y="229.5" width="2" height="838.8" transform="translate(-304.7 562.2) rotate(-45)"/>
          </g>
          <g>
            <line class="cls-3" x1="870.22" y1="898.09" x2="277.1" y2="304.96"/>
            <rect class="cls-2" x="572.66" y="182.12" width="2" height="838.8" transform="translate(-257.32 581.82) rotate(-45)"/>
          </g>
          <g>
            <line class="cls-3" x1="918.09" y1="851.2" x2="324.96" y2="258.08"/>
            <rect class="cls-2" x="620.53" y="135.24" width="2" height="838.8" transform="translate(-210.15 601.94) rotate(-45)"/>
          </g>
          <g>
            <line class="cls-3" x1="964.97" y1="803.34" x2="371.85" y2="210.21"/>
            <rect class="cls-2" x="667.41" y="87.37" width="2" height="838.8" transform="translate(-162.57 621.07) rotate(-45)"/>
          </g>
          <g>
            <line class="cls-3" x1="1012.35" y1="755.96" x2="419.22" y2="162.84"/>
            <rect class="cls-2" x="714.79" y="40" width="2" height="838.8" transform="translate(-115.19 640.69) rotate(-45)"/>
          </g>
          <g>
            <line class="cls-3" x1="1060.22" y1="709.08" x2="467.09" y2="115.95"/>
            <rect class="cls-2" x="762.65" y="-6.89" width="2" height="838.8" transform="translate(-68.02 660.81) rotate(-45)"/>
          </g>
          <g>
            <line class="cls-3" x1="1107.1" y1="661.21" x2="513.98" y2="68.08"/>
            <rect class="cls-2" x="809.54" y="-54.76" width="2" height="838.8" transform="translate(-20.44 679.94) rotate(-45)"/>
          </g>
          <g>
            <line class="cls-3" x1="1154.48" y1="613.83" x2="561.35" y2="20.71"/>
            <rect class="cls-2" x="856.92" y="-102.13" width="2" height="838.8" transform="translate(26.93 699.56) rotate(-45)"/>
          </g>
        </g>
        <g>
          <g>
            <line class="cls-3" x1="177.84" y1="946.58" x2="1016.65" y2="946.58"/>
            <rect class="cls-2" x="177.84" y="945.58" width="838.8" height="2"/>
          </g>
          <g>
            <line class="cls-3" x1="178.54" y1="879.58" x2="1017.34" y2="879.58"/>
            <rect class="cls-2" x="178.54" y="878.58" width="838.8" height="2"/>
          </g>
          <g>
            <line class="cls-3" x1="178.54" y1="812.58" x2="1017.34" y2="812.58"/>
            <rect class="cls-2" x="178.54" y="811.58" width="838.8" height="2"/>
          </g>
          <g>
            <line class="cls-3" x1="177.84" y1="745.58" x2="1016.65" y2="745.58"/>
            <rect class="cls-2" x="177.84" y="744.58" width="838.8" height="2"/>
          </g>
          <g>
            <line class="cls-3" x1="178.54" y1="678.58" x2="1017.34" y2="678.58"/>
            <rect class="cls-2" x="178.54" y="677.58" width="838.8" height="2"/>
          </g>
          <g>
            <line class="cls-3" x1="178.54" y1="611.58" x2="1017.34" y2="611.58"/>
            <rect class="cls-2" x="178.54" y="610.58" width="838.8" height="2"/>
          </g>
          <g>
            <line class="cls-3" x1="177.84" y1="544.58" x2="1016.65" y2="544.58"/>
            <rect class="cls-2" x="177.84" y="543.58" width="838.8" height="2"/>
          </g>
          <g>
            <line class="cls-3" x1="178.54" y1="477.58" x2="1017.34" y2="477.58"/>
            <rect class="cls-2" x="178.54" y="476.58" width="838.8" height="2"/>
          </g>
          <g>
            <line class="cls-3" x1="178.54" y1="410.58" x2="1017.34" y2="410.58"/>
            <rect class="cls-2" x="178.54" y="409.58" width="838.8" height="2"/>
          </g>
          <g>
            <line class="cls-3" x1="177.84" y1="343.58" x2="1016.65" y2="343.58"/>
            <rect class="cls-2" x="177.84" y="342.58" width="838.8" height="2"/>
          </g>
          <g>
            <line class="cls-3" x1="178.54" y1="276.58" x2="1017.34" y2="276.58"/>
            <rect class="cls-2" x="178.54" y="275.58" width="838.8" height="2"/>
          </g>
          <g>
            <line class="cls-3" x1="178.54" y1="209.58" x2="1017.34" y2="209.58"/>
            <rect class="cls-2" x="178.54" y="208.58" width="838.8" height="2"/>
          </g>
          <g>
            <line class="cls-3" x1="229.09" y1="997.83" x2="229.09" y2="159.03"/>
            <rect class="cls-2" x="228.09" y="159.03" width="2" height="838.8"/>
          </g>
          <rect class="cls-2" x="295.09" y="158.33" width="2" height="838.8"/>
          <g>
            <line class="cls-3" x1="363.09" y1="997.14" x2="363.09" y2="158.33"/>
            <rect class="cls-2" x="362.09" y="158.33" width="2" height="838.8"/>
          </g>
          <rect class="cls-2" x="429.09" y="159.03" width="2" height="838.8"/>
          <rect class="cls-2" x="496.09" y="158.33" width="2" height="838.8"/>
          <rect class="cls-2" x="563.09" y="158.33" width="2" height="838.8"/>
          <rect class="cls-2" x="630.09" y="159.03" width="2" height="838.8"/>
          <rect class="cls-2" x="697.09" y="158.33" width="2" height="838.8"/>
          <rect class="cls-2" x="764.09" y="158.33" width="2" height="838.8"/>
          <rect class="cls-2" x="831.09" y="159.03" width="2" height="838.8"/>
          <rect class="cls-2" x="898.09" y="158.33" width="2" height="838.8"/>
          <rect class="cls-2" x="965.09" y="158.33" width="2" height="838.8"/>
        </g>
      </g>
      <g>
        <g>
          <g>
            <line class="cls-3" x1="541.35" y1="1115.46" x2="1134.48" y2="522.34"/>
            <rect class="cls-2" x="418.51" y="817.9" width="838.8" height="2" transform="translate(-333.63 832.35) rotate(-45)"/>
          </g>
          <g>
            <line class="cls-3" x1="494.47" y1="1067.59" x2="1087.59" y2="474.47"/>
            <rect class="cls-2" x="371.63" y="770.03" width="838.8" height="2" transform="translate(-313.51 785.17) rotate(-45)"/>
          </g>
          <g>
            <line class="cls-3" x1="447.09" y1="1020.22" x2="1040.22" y2="427.09"/>
            <rect class="cls-2" x="324.25" y="722.65" width="838.8" height="2" transform="translate(-293.89 737.8) rotate(-45)"/>
          </g>
          <g>
            <line class="cls-3" x1="399.22" y1="973.33" x2="992.35" y2="380.21"/>
            <rect class="cls-2" x="276.38" y="675.77" width="838.8" height="2" transform="translate(-274.76 690.22) rotate(-45)"/>
          </g>
          <g>
            <line class="cls-3" x1="352.34" y1="925.46" x2="945.46" y2="332.34"/>
            <rect class="cls-2" x="229.5" y="627.9" width="838.8" height="2" transform="translate(-254.64 643.04) rotate(-45)"/>
          </g>
          <g>
            <line class="cls-3" x1="304.96" y1="878.09" x2="898.09" y2="284.96"/>
            <rect class="cls-2" x="182.12" y="580.53" width="838.8" height="2" transform="translate(-235.02 595.67) rotate(-45)"/>
          </g>
          <g>
            <line class="cls-3" x1="257.1" y1="831.2" x2="850.22" y2="238.08"/>
            <rect class="cls-2" x="134.26" y="533.64" width="838.8" height="2" transform="translate(-215.89 548.09) rotate(-45)"/>
          </g>
          <g>
            <line class="cls-3" x1="210.21" y1="783.34" x2="803.34" y2="190.21"/>
            <rect class="cls-2" x="87.37" y="485.77" width="838.8" height="2" transform="translate(-195.77 500.92) rotate(-45)"/>
          </g>
          <g>
            <line class="cls-3" x1="162.84" y1="735.96" x2="755.96" y2="142.84"/>
            <rect class="cls-2" x="40" y="438.4" width="838.8" height="2" transform="translate(-176.15 453.54) rotate(-45)"/>
          </g>
          <g>
            <line class="cls-3" x1="114.97" y1="689.08" x2="708.09" y2="95.95"/>
            <rect class="cls-2" x="-7.87" y="391.51" width="838.8" height="2" transform="translate(-157.01 405.96) rotate(-45)"/>
          </g>
          <g>
            <line class="cls-3" x1="68.08" y1="641.21" x2="661.21" y2="48.08"/>
            <rect class="cls-2" x="-54.76" y="343.65" width="838.8" height="2" transform="translate(-136.9 358.79) rotate(-45)"/>
          </g>
          <g>
            <line class="cls-3" x1="20.71" y1="593.83" x2="613.83" y2=".71"/>
            <rect class="cls-2" x="-102.13" y="296.27" width="838.8" height="2" transform="translate(-117.27 311.41) rotate(-45)"/>
          </g>
          <g>
            <line class="cls-3" x1="613.83" y1="1115.46" x2="20.71" y2="522.34"/>
            <rect class="cls-2" x="316.27" y="399.5" width="2" height="838.8" transform="translate(-486.12 464.19) rotate(-45)"/>
          </g>
          <g>
            <line class="cls-3" x1="660.72" y1="1067.59" x2="67.59" y2="474.47"/>
            <rect class="cls-2" x="363.15" y="351.63" width="2" height="838.8" transform="translate(-438.54 483.33) rotate(-45)"/>
          </g>
          <g>
            <line class="cls-3" x1="708.09" y1="1020.22" x2="114.97" y2="427.09"/>
            <rect class="cls-2" x="410.53" y="304.25" width="2" height="838.8" transform="translate(-391.17 502.95) rotate(-45)"/>
          </g>
          <g>
            <line class="cls-3" x1="755.96" y1="973.33" x2="162.84" y2="380.21"/>
            <rect class="cls-2" x="458.4" y="257.37" width="2" height="838.8" transform="translate(-343.99 523.06) rotate(-45)"/>
          </g>
          <g>
            <line class="cls-3" x1="802.84" y1="925.46" x2="209.72" y2="332.34"/>
            <rect class="cls-2" x="505.28" y="209.5" width="2" height="838.8" transform="translate(-296.41 542.2) rotate(-45)"/>
          </g>
          <g>
            <line class="cls-3" x1="850.22" y1="878.09" x2="257.1" y2="284.96"/>
            <rect class="cls-2" x="552.66" y="162.12" width="2" height="838.8" transform="translate(-249.04 561.82) rotate(-45)"/>
          </g>
          <g>
            <line class="cls-3" x1="898.09" y1="831.2" x2="304.96" y2="238.08"/>
            <rect class="cls-2" x="600.53" y="115.24" width="2" height="838.8" transform="translate(-201.87 581.94) rotate(-45)"/>
          </g>
          <g>
            <line class="cls-3" x1="944.97" y1="783.34" x2="351.85" y2="190.21"/>
            <rect class="cls-2" x="647.41" y="67.37" width="2" height="838.8" transform="translate(-154.29 601.07) rotate(-45)"/>
          </g>
          <g>
            <line class="cls-3" x1="992.35" y1="735.96" x2="399.22" y2="142.84"/>
            <rect class="cls-2" x="694.79" y="20" width="2" height="838.8" transform="translate(-106.91 620.69) rotate(-45)"/>
          </g>
          <g>
            <line class="cls-3" x1="1040.22" y1="689.08" x2="447.09" y2="95.95"/>
            <rect class="cls-2" x="742.65" y="-26.89" width="2" height="838.8" transform="translate(-59.74 640.81) rotate(-45)"/>
          </g>
          <g>
            <line class="cls-3" x1="1087.1" y1="641.21" x2="493.98" y2="48.08"/>
            <rect class="cls-2" x="789.54" y="-74.76" width="2" height="838.8" transform="translate(-12.16 659.94) rotate(-45)"/>
          </g>
          <g>
            <line class="cls-3" x1="1134.48" y1="593.83" x2="541.35" y2=".71"/>
            <rect class="cls-2" x="836.92" y="-122.13" width="2" height="838.8" transform="translate(35.22 679.56) rotate(-45)"/>
          </g>
        </g>
        <g>
          <g>
            <line class="cls-3" x1="157.84" y1="926.58" x2="996.65" y2="926.58"/>
            <rect class="cls-2" x="157.84" y="925.58" width="838.8" height="2"/>
          </g>
          <g>
            <line class="cls-3" x1="158.54" y1="859.58" x2="997.34" y2="859.58"/>
            <rect class="cls-2" x="158.54" y="858.58" width="838.8" height="2"/>
          </g>
          <g>
            <line class="cls-3" x1="158.54" y1="792.58" x2="997.34" y2="792.58"/>
            <rect class="cls-2" x="158.54" y="791.58" width="838.8" height="2"/>
          </g>
          <g>
            <line class="cls-3" x1="157.84" y1="725.58" x2="996.65" y2="725.58"/>
            <rect class="cls-2" x="157.84" y="724.58" width="838.8" height="2"/>
          </g>
          <g>
            <line class="cls-3" x1="158.54" y1="658.58" x2="997.34" y2="658.58"/>
            <rect class="cls-2" x="158.54" y="657.58" width="838.8" height="2"/>
          </g>
          <g>
            <line class="cls-3" x1="158.54" y1="591.58" x2="997.34" y2="591.58"/>
            <rect class="cls-2" x="158.54" y="590.58" width="838.8" height="2"/>
          </g>
          <g>
            <line class="cls-3" x1="157.84" y1="524.58" x2="996.65" y2="524.58"/>
            <rect class="cls-2" x="157.84" y="523.58" width="838.8" height="2"/>
          </g>
          <g>
            <line class="cls-3" x1="158.54" y1="457.58" x2="997.34" y2="457.58"/>
            <rect class="cls-2" x="158.54" y="456.58" width="838.8" height="2"/>
          </g>
          <g>
            <line class="cls-3" x1="158.54" y1="390.58" x2="997.34" y2="390.58"/>
            <rect class="cls-2" x="158.54" y="389.58" width="838.8" height="2"/>
          </g>
          <g>
            <line class="cls-3" x1="157.84" y1="323.58" x2="996.65" y2="323.58"/>
            <rect class="cls-2" x="157.84" y="322.58" width="838.8" height="2"/>
          </g>
          <g>
            <line class="cls-3" x1="158.54" y1="256.58" x2="997.34" y2="256.58"/>
            <rect class="cls-2" x="158.54" y="255.58" width="838.8" height="2"/>
          </g>
          <g>
            <line class="cls-3" x1="158.54" y1="189.58" x2="997.34" y2="189.58"/>
            <rect class="cls-2" x="158.54" y="188.58" width="838.8" height="2"/>
          </g>
          <g>
            <line class="cls-3" x1="209.09" y1="977.83" x2="209.09" y2="139.03"/>
            <rect class="cls-2" x="208.09" y="139.03" width="2" height="838.8"/>
          </g>
          <rect class="cls-2" x="275.09" y="138.33" width="2" height="838.8"/>
          <g>
            <line class="cls-3" x1="343.09" y1="977.14" x2="343.09" y2="138.33"/>
            <rect class="cls-2" x="342.09" y="138.33" width="2" height="838.8"/>
          </g>
          <rect class="cls-2" x="409.09" y="139.03" width="2" height="838.8"/>
          <rect class="cls-2" x="476.09" y="138.33" width="2" height="838.8"/>
          <rect class="cls-2" x="543.09" y="138.33" width="2" height="838.8"/>
          <rect class="cls-2" x="610.09" y="139.03" width="2" height="838.8"/>
          <rect class="cls-2" x="677.09" y="138.33" width="2" height="838.8"/>
          <rect class="cls-2" x="744.09" y="138.33" width="2" height="838.8"/>
          <rect class="cls-2" x="811.09" y="139.03" width="2" height="838.8"/>
          <rect class="cls-2" x="878.09" y="138.33" width="2" height="838.8"/>
          <rect class="cls-2" x="945.09" y="138.33" width="2" height="838.8"/>
        </g>
      </g>
      <g>
        <g>
          <g>
            <line class="cls-3" x1="521.35" y1="1135.46" x2="1114.48" y2="542.34"/>
            <rect class="cls-2" x="398.51" y="837.9" width="838.8" height="2" transform="translate(-353.63 824.06) rotate(-45)"/>
          </g>
          <g>
            <line class="cls-3" x1="474.47" y1="1087.59" x2="1067.59" y2="494.47"/>
            <rect class="cls-2" x="351.63" y="790.03" width="838.8" height="2" transform="translate(-333.51 776.89) rotate(-45)"/>
          </g>
          <g>
            <line class="cls-3" x1="427.09" y1="1040.22" x2="1020.22" y2="447.09"/>
            <rect class="cls-2" x="304.25" y="742.65" width="838.8" height="2" transform="translate(-313.89 729.51) rotate(-45)"/>
          </g>
          <g>
            <line class="cls-3" x1="379.22" y1="993.33" x2="972.35" y2="400.21"/>
            <rect class="cls-2" x="256.38" y="695.77" width="838.8" height="2" transform="translate(-294.76 681.93) rotate(-45)"/>
          </g>
          <g>
            <line class="cls-3" x1="332.34" y1="945.46" x2="925.46" y2="352.34"/>
            <rect class="cls-2" x="209.5" y="647.9" width="838.8" height="2" transform="translate(-274.64 634.76) rotate(-45)"/>
          </g>
          <g>
            <line class="cls-3" x1="284.96" y1="898.09" x2="878.09" y2="304.96"/>
            <rect class="cls-2" x="162.12" y="600.53" width="838.8" height="2" transform="translate(-255.02 587.38) rotate(-45)"/>
          </g>
          <g>
            <line class="cls-3" x1="237.1" y1="851.2" x2="830.22" y2="258.08"/>
            <rect class="cls-2" x="114.26" y="553.64" width="838.8" height="2" transform="translate(-235.89 539.8) rotate(-45)"/>
          </g>
          <g>
            <line class="cls-3" x1="190.21" y1="803.34" x2="783.34" y2="210.21"/>
            <rect class="cls-2" x="67.37" y="505.77" width="838.8" height="2" transform="translate(-215.77 492.63) rotate(-45)"/>
          </g>
          <g>
            <line class="cls-3" x1="142.84" y1="755.96" x2="735.96" y2="162.84"/>
            <rect class="cls-2" x="20" y="458.4" width="838.8" height="2" transform="translate(-196.15 445.26) rotate(-45)"/>
          </g>
          <g>
            <line class="cls-3" x1="94.97" y1="709.08" x2="688.09" y2="115.95"/>
            <rect class="cls-2" x="-27.87" y="411.51" width="838.8" height="2" transform="translate(-177.01 397.68) rotate(-45)"/>
          </g>
          <g>
            <line class="cls-3" x1="48.08" y1="661.21" x2="641.21" y2="68.08"/>
            <rect class="cls-2" x="-74.76" y="363.65" width="838.8" height="2" transform="translate(-156.9 350.5) rotate(-45)"/>
          </g>
          <g>
            <line class="cls-3" x1=".71" y1="613.83" x2="593.83" y2="20.71"/>
            <rect class="cls-2" x="-122.13" y="316.27" width="838.8" height="2" transform="translate(-137.27 303.13) rotate(-45)"/>
          </g>
          <g>
            <line class="cls-3" x1="593.83" y1="1135.46" x2=".71" y2="542.34"/>
            <rect class="cls-2" x="296.27" y="419.5" width="2" height="838.8" transform="translate(-506.12 455.91) rotate(-45)"/>
          </g>
          <g>
            <line class="cls-3" x1="640.72" y1="1087.59" x2="47.59" y2="494.47"/>
            <rect class="cls-2" x="343.15" y="371.63" width="2" height="838.8" transform="translate(-458.54 475.04) rotate(-45)"/>
          </g>
          <g>
            <line class="cls-3" x1="688.09" y1="1040.22" x2="94.97" y2="447.09"/>
            <rect class="cls-2" x="390.53" y="324.25" width="2" height="838.8" transform="translate(-411.17 494.67) rotate(-45)"/>
          </g>
          <g>
            <line class="cls-3" x1="735.96" y1="993.33" x2="142.84" y2="400.21"/>
            <rect class="cls-2" x="438.4" y="277.37" width="2" height="838.8" transform="translate(-363.99 514.78) rotate(-45)"/>
          </g>
          <g>
            <line class="cls-3" x1="782.84" y1="945.46" x2="189.72" y2="352.34"/>
            <rect class="cls-2" x="485.28" y="229.5" width="2" height="838.8" transform="translate(-316.41 533.91) rotate(-45)"/>
          </g>
          <g>
            <line class="cls-3" x1="830.22" y1="898.09" x2="237.1" y2="304.96"/>
            <rect class="cls-2" x="532.66" y="182.12" width="2" height="838.8" transform="translate(-269.04 553.54) rotate(-45)"/>
          </g>
          <g>
            <line class="cls-3" x1="878.09" y1="851.2" x2="284.96" y2="258.08"/>
            <rect class="cls-2" x="580.53" y="135.24" width="2" height="838.8" transform="translate(-221.87 573.65) rotate(-45)"/>
          </g>
          <g>
            <line class="cls-3" x1="924.97" y1="803.34" x2="331.85" y2="210.21"/>
            <rect class="cls-2" x="627.41" y="87.37" width="2" height="838.8" transform="translate(-174.29 592.78) rotate(-45)"/>
          </g>
          <g>
            <line class="cls-3" x1="972.35" y1="755.96" x2="379.22" y2="162.84"/>
            <rect class="cls-2" x="674.79" y="40" width="2" height="838.8" transform="translate(-126.91 612.41) rotate(-45)"/>
          </g>
          <g>
            <line class="cls-3" x1="1020.22" y1="709.08" x2="427.09" y2="115.95"/>
            <rect class="cls-2" x="722.65" y="-6.89" width="2" height="838.8" transform="translate(-79.74 632.52) rotate(-45)"/>
          </g>
          <g>
            <line class="cls-3" x1="1067.1" y1="661.21" x2="473.98" y2="68.08"/>
            <rect class="cls-2" x="769.54" y="-54.76" width="2" height="838.8" transform="translate(-32.16 651.66) rotate(-45)"/>
          </g>
          <g>
            <line class="cls-3" x1="1114.48" y1="613.83" x2="521.35" y2="20.71"/>
            <rect class="cls-2" x="816.92" y="-102.13" width="2" height="838.8" transform="translate(15.22 671.28) rotate(-45)"/>
          </g>
        </g>
        <g>
          <g>
            <line class="cls-3" x1="137.84" y1="946.58" x2="976.65" y2="946.58"/>
            <rect class="cls-2" x="137.84" y="945.58" width="838.8" height="2"/>
          </g>
          <g>
            <line class="cls-3" x1="138.54" y1="879.58" x2="977.34" y2="879.58"/>
            <rect class="cls-2" x="138.54" y="878.58" width="838.8" height="2"/>
          </g>
          <g>
            <line class="cls-3" x1="138.54" y1="812.58" x2="977.34" y2="812.58"/>
            <rect class="cls-2" x="138.54" y="811.58" width="838.8" height="2"/>
          </g>
          <g>
            <line class="cls-3" x1="137.84" y1="745.58" x2="976.65" y2="745.58"/>
            <rect class="cls-2" x="137.84" y="744.58" width="838.8" height="2"/>
          </g>
          <g>
            <line class="cls-3" x1="138.54" y1="678.58" x2="977.34" y2="678.58"/>
            <rect class="cls-2" x="138.54" y="677.58" width="838.8" height="2"/>
          </g>
          <g>
            <line class="cls-3" x1="138.54" y1="611.58" x2="977.34" y2="611.58"/>
            <rect class="cls-2" x="138.54" y="610.58" width="838.8" height="2"/>
          </g>
          <g>
            <line class="cls-3" x1="137.84" y1="544.58" x2="976.65" y2="544.58"/>
            <rect class="cls-2" x="137.84" y="543.58" width="838.8" height="2"/>
          </g>
          <g>
            <line class="cls-3" x1="138.54" y1="477.58" x2="977.34" y2="477.58"/>
            <rect class="cls-2" x="138.54" y="476.58" width="838.8" height="2"/>
          </g>
          <g>
            <line class="cls-3" x1="138.54" y1="410.58" x2="977.34" y2="410.58"/>
            <rect class="cls-2" x="138.54" y="409.58" width="838.8" height="2"/>
          </g>
          <g>
            <line class="cls-3" x1="137.84" y1="343.58" x2="976.65" y2="343.58"/>
            <rect class="cls-2" x="137.84" y="342.58" width="838.8" height="2"/>
          </g>
          <g>
            <line class="cls-3" x1="138.54" y1="276.58" x2="977.34" y2="276.58"/>
            <rect class="cls-2" x="138.54" y="275.58" width="838.8" height="2"/>
          </g>
          <g>
            <line class="cls-3" x1="138.54" y1="209.58" x2="977.34" y2="209.58"/>
            <rect class="cls-2" x="138.54" y="208.58" width="838.8" height="2"/>
          </g>
          <g>
            <line class="cls-3" x1="189.09" y1="997.83" x2="189.09" y2="159.03"/>
            <rect class="cls-2" x="188.09" y="159.03" width="2" height="838.8"/>
          </g>
          <rect class="cls-2" x="255.09" y="158.33" width="2" height="838.8"/>
          <g>
            <line class="cls-3" x1="323.09" y1="997.14" x2="323.09" y2="158.33"/>
            <rect class="cls-2" x="322.09" y="158.33" width="2" height="838.8"/>
          </g>
          <rect class="cls-2" x="389.09" y="159.03" width="2" height="838.8"/>
          <rect class="cls-2" x="456.09" y="158.33" width="2" height="838.8"/>
          <rect class="cls-2" x="523.09" y="158.33" width="2" height="838.8"/>
          <rect class="cls-2" x="590.09" y="159.03" width="2" height="838.8"/>
          <rect class="cls-2" x="657.09" y="158.33" width="2" height="838.8"/>
          <rect class="cls-2" x="724.09" y="158.33" width="2" height="838.8"/>
          <rect class="cls-2" x="791.09" y="159.03" width="2" height="838.8"/>
          <rect class="cls-2" x="858.09" y="158.33" width="2" height="838.8"/>
          <rect class="cls-2" x="925.09" y="158.33" width="2" height="838.8"/>
        </g>
      </g>
    </g>
  </g>
  <g>
    <path class="cls-1" d="m588.56,501.54l-1.45.49c-25.2,8.43-52.56,4.84-75.5-8.58-7.56-4.43-16.81-6.64-27.72-6.64-26.22,0-39.33,8.51-39.33,25.52,0,6.78,2.45,12.52,7.36,17.22,4.9,4.7,15.99,8.79,33.25,12.26,28.87,5.83,50,11.71,63.41,17.66,13.4,5.95,24.69,15.52,33.88,28.73,9.19,13.21,13.78,27.97,13.78,44.29,0,25.59-9.85,47.71-29.54,66.39-19.7,18.67-48.89,28.01-87.59,28.01-29.02,0-53.73-6.6-74.12-19.82-20.39-13.21-33.83-32.82-40.32-58.83l1.34-.3c27.63-6.26,43.58-10.11,79.65,16.13,9.42,6.85,22.26,9.91,38,9.91s26.5-2.94,33.96-8.82c7.45-5.88,11.18-12.9,11.18-21.06s-3.38-14.73-10.15-19.3c-6.77-4.56-19.82-8.85-39.16-12.87-36.06-7.48-61.75-17.68-77.09-30.62-15.33-12.93-23-31.85-23-56.74s9.15-46.4,27.46-63.7c18.31-17.29,43.15-25.93,74.52-25.93,55.55,0,91.28,22.2,107.17,66.61Z"/>
    <path class="cls-1" d="m743.17,452.32h0s-70.13,0-70.13,0v159.98c0,37.13-30.1,67.23-67.23,67.23h0v-227.21h-14.52c-30.94,0-56.02-25.08-56.02-56.02h0s151.89,0,151.89,0c30.94,0,56.02,25.08,56.02,56.02Z"/>
  </g>
</svg>